REM DIRINDEX 1\6,1\2\7,1\2\8,1\2\9,1\3\10,1\3\11,1\4\12,1\4\13,1\4\14,1\5\15,1\5\16,1\5\17
REM DIRNAME folder01,folder02,folder03,folder04,folder05,folder06,folder07,folder08,folder09,folder10,folder11,folder12,folder13,folder14,folder15,folder16,folder17
TITLE ""
FILE "P2Q_j_1310-1323.mp3" MP3
  TRACK 01 AUDIO
    TITLE "12:cjc040_0675"
    INDEX 01 00:00:00
  TRACK 02 AUDIO
    TITLE "0:"
    INDEX 01 00:01:58
  TRACK 03 AUDIO
    TITLE "13:cjc040_0676"
    INDEX 01 00:02:42
  TRACK 04 AUDIO
    TITLE "0:"
    INDEX 01 00:04:27
  TRACK 05 AUDIO
    TITLE "14:cjc040_0677"
    INDEX 01 00:05:05
  TRACK 06 AUDIO
    TITLE "0:"
    INDEX 01 00:09:14
  TRACK 07 AUDIO
    TITLE "12:cjc040_0678"
    INDEX 01 00:09:71
  TRACK 08 AUDIO
    TITLE "0:"
    INDEX 01 00:11:21
  TRACK 09 AUDIO
    TITLE "13:cjc040_0679"
    INDEX 01 00:12:03
  TRACK 10 AUDIO
    TITLE "0:"
    INDEX 01 00:13:12
  TRACK 11 AUDIO
    TITLE "14:cjc040_0680"
    INDEX 01 00:13:61
  TRACK 12 AUDIO
    TITLE "0:"
    INDEX 01 00:18:52
  TRACK 13 AUDIO
    TITLE "12:cjc040_0681"
    INDEX 01 00:19:36
  TRACK 14 AUDIO
    TITLE "0:"
    INDEX 01 00:20:73
  TRACK 15 AUDIO
    TITLE "13:cjc040_0682"
    INDEX 01 00:21:51
  TRACK 16 AUDIO
    TITLE "0:"
    INDEX 01 00:24:00
  TRACK 17 AUDIO
    TITLE "14:cjc040_0683"
    INDEX 01 00:24:53
  TRACK 18 AUDIO
    TITLE "0:"
    INDEX 01 00:31:53
  TRACK 19 AUDIO
    TITLE "12:cjc040_0684"
    INDEX 01 00:32:29
  TRACK 20 AUDIO
    TITLE "0:"
    INDEX 01 00:34:20
  TRACK 21 AUDIO
    TITLE "13:cjc040_0685"
    INDEX 01 00:34:71
  TRACK 22 AUDIO
    TITLE "0:"
    INDEX 01 00:37:30
  TRACK 23 AUDIO
    TITLE "14:cjc040_0686"
    INDEX 01 00:38:08
  TRACK 24 AUDIO
    TITLE "0:"
    INDEX 01 00:43:21
  TRACK 25 AUDIO
    TITLE "12:cjc040_0687"
    INDEX 01 00:44:03
  TRACK 26 AUDIO
    TITLE "0:"
    INDEX 01 00:46:00
  TRACK 27 AUDIO
    TITLE "13:cjc040_0688"
    INDEX 01 00:46:53
  TRACK 28 AUDIO
    TITLE "0:"
    INDEX 01 00:48:24
  TRACK 29 AUDIO
    TITLE "14:cjc040_0689"
    INDEX 01 00:48:71
  TRACK 30 AUDIO
    TITLE "0:"
    INDEX 01 00:53:74
  TRACK 31 AUDIO
    TITLE "12:cjc040_0690"
    INDEX 01 00:54:48
  TRACK 32 AUDIO
    TITLE "0:"
    INDEX 01 00:56:35
  TRACK 33 AUDIO
    TITLE "13:cjc040_0691"
    INDEX 01 00:57:15
  TRACK 34 AUDIO
    TITLE "0:"
    INDEX 01 00:59:20
  TRACK 35 AUDIO
    TITLE "14:cjc040_0692"
    INDEX 01 00:59:71
  TRACK 36 AUDIO
    TITLE "0:"
    INDEX 01 01:04:27
  TRACK 37 AUDIO
    TITLE "12:cjc040_0693"
    INDEX 01 01:05:05
  TRACK 38 AUDIO
    TITLE "0:"
    INDEX 01 01:07:02
  TRACK 39 AUDIO
    TITLE "13:cjc040_0694"
    INDEX 01 01:07:59
  TRACK 40 AUDIO
    TITLE "0:"
    INDEX 01 01:10:06
  TRACK 41 AUDIO
    TITLE "14:cjc040_0695"
    INDEX 01 01:10:57
  TRACK 42 AUDIO
    TITLE "0:"
    INDEX 01 01:16:30
  TRACK 43 AUDIO
    TITLE "12:cjc040_0696"
    INDEX 01 01:17:02
  TRACK 44 AUDIO
    TITLE "0:"
    INDEX 01 01:19:03
  TRACK 45 AUDIO
    TITLE "13:cjc040_0697"
    INDEX 01 01:19:54
  TRACK 46 AUDIO
    TITLE "0:"
    INDEX 01 01:21:49
  TRACK 47 AUDIO
    TITLE "14:cjc040_0698"
    INDEX 01 01:22:31
  TRACK 48 AUDIO
    TITLE "0:"
    INDEX 01 01:27:42
  TRACK 49 AUDIO
    TITLE "12:cjc040_0699"
    INDEX 01 01:28:22
  TRACK 50 AUDIO
    TITLE "0:"
    INDEX 01 01:30:26
  TRACK 51 AUDIO
    TITLE "13:cjc040_0700"
    INDEX 01 01:31:06
  TRACK 52 AUDIO
    TITLE "0:"
    INDEX 01 01:33:13
  TRACK 53 AUDIO
    TITLE "14:cjc040_0701"
    INDEX 01 01:33:62
  TRACK 54 AUDIO
    TITLE "0:"
    INDEX 01 01:38:73
  TRACK 55 AUDIO
    TITLE "12:cjc040_0702"
    INDEX 01 01:39:53
  TRACK 56 AUDIO
    TITLE "0:"
    INDEX 01 01:42:00
  TRACK 57 AUDIO
    TITLE "13:cjc040_0703"
    INDEX 01 01:42:55
  TRACK 58 AUDIO
    TITLE "0:"
    INDEX 01 01:44:54
  TRACK 59 AUDIO
    TITLE "14:cjc040_0704"
    INDEX 01 01:45:34
  TRACK 60 AUDIO
    TITLE "0:"
    INDEX 01 01:50:68
  TRACK 61 AUDIO
    TITLE "12:cjc040_0705"
    INDEX 01 01:51:46
  TRACK 62 AUDIO
    TITLE "0:"
    INDEX 01 01:53:63
  TRACK 63 AUDIO
    TITLE "13:cjc040_0706"
    INDEX 01 01:54:44
  TRACK 64 AUDIO
    TITLE "0:"
    INDEX 01 01:58:68
  TRACK 65 AUDIO
    TITLE "14:cjc040_0707"
    INDEX 01 01:59:48
  TRACK 66 AUDIO
    TITLE "0:"
    INDEX 01 02:05:23
  TRACK 67 AUDIO
    TITLE "12:cjc040_0708"
    INDEX 01 02:06:01
  TRACK 68 AUDIO
    TITLE "0:"
    INDEX 01 02:07:69
  TRACK 69 AUDIO
    TITLE "13:cjc040_0709"
    INDEX 01 02:08:48
  TRACK 70 AUDIO
    TITLE "0:"
    INDEX 01 02:11:04
  TRACK 71 AUDIO
    TITLE "14:cjc040_0710"
    INDEX 01 02:11:55
  TRACK 72 AUDIO
    TITLE "0:"
    INDEX 01 02:15:74
  TRACK 73 AUDIO
    TITLE "12:cjc040_0711"
    INDEX 01 02:16:56
  TRACK 74 AUDIO
    TITLE "0:"
    INDEX 01 02:18:68
  TRACK 75 AUDIO
    TITLE "13:cjc040_0712"
    INDEX 01 02:19:52
  TRACK 76 AUDIO
    TITLE "0:"
    INDEX 01 02:21:71
  TRACK 77 AUDIO
    TITLE "14:cjc040_0713"
    INDEX 01 02:22:49
  TRACK 78 AUDIO
    TITLE "0:"
    INDEX 01 02:28:53
  TRACK 79 AUDIO
    TITLE "12:cjc040_0714"
    INDEX 01 02:29:35
  TRACK 80 AUDIO
    TITLE "0:"
    INDEX 01 02:31:65
  TRACK 81 AUDIO
    TITLE "13:cjc040_0715"
    INDEX 01 02:32:53
  TRACK 82 AUDIO
    TITLE "0:"
    INDEX 01 02:37:42
  TRACK 83 AUDIO
    TITLE "14:cjc040_0716"
    INDEX 01 02:38:22
  TRACK 84 AUDIO
    TITLE "0:"
    INDEX 01 02:42:49
